<svg xmlns="http://www.w3.org/2000/svg" data-name="Layer 1" viewBox="0 0 512 512"><path d="M316.72705,57.48145a7.5,7.5,0,0,0,0,15A122.79164,122.79164,0,0,1,439.51855,195.273a7.5,7.5,0,1,0,15,0,137.79216,137.79216,0,0,0-137.7915-137.7915Zm180.40332,63.06591A195.29177,195.29177,0,0,0,316.72705,0a7.5,7.5,0,0,0,0,15A180.27314,180.27314,0,0,1,497,195.273a7.5,7.5,0,1,0,15,0A194.30038,194.30038,0,0,0,497.13037,120.54736ZM127.5,434.5A7.5,7.5,0,1,0,135,442,7.5,7.5,0,0,0,127.5,434.5ZM281.76746,239.27722l21.99609-20.70331a25.00483,25.00483,0,1,0-10.52142-10.69683L271.1557,228.66547,156.10791,113.61768a17.68122,17.68122,0,0,0-12.894-5.12842,17.48469,17.48469,0,0,0-12.5,5.79931C66.255,186.463,66.52039,295.01276,129.398,366.93579l-24.3822,42.2323a64.5216,64.5216,0,0,0-29.60071,22.454L49.69989,467H41.041A37.29652,37.29652,0,0,0,7.49951,487.72949L.792,501.146A7.49984,7.49984,0,0,0,7.5,512h240a7.49984,7.49984,0,0,0,6.708-10.854L247.5,487.72949A37.29525,37.29525,0,0,0,213.959,467h-8.65893l-23.99268-33.00769,11.26844-19.51843a191.09881,191.09881,0,0,0,207.75085-30.572,17.487,17.487,0,0,0,.67139-25.394Zm26.66174-49.848a9.99962,9.99962,0,1,1,14.1416,14.1416v.00049a9.99979,9.99979,0,1,1-14.1416-14.14209ZM140.16705,378.283a190.78063,190.78063,0,0,0,39.06086,29.31055l-8.2959,14.36938A64.60531,64.60531,0,0,0,127.5,405.09082c-.95319,0-1.90308.02844-2.851.0708Zm61.31879,103.71753L201.49219,482H213.959a22.37846,22.37846,0,0,1,20.125,12.4375L235.36475,497H19.63525l1.28077-2.562A22.378,22.378,0,0,1,41.041,482H201.47736ZM186.7558,467H68.244l19.30432-26.55859a49.39076,49.39076,0,0,1,79.90283,0ZM390.335,372.71387c-69.481,62.0542-175.562,59.00976-241.50293-6.93067-65.94043-65.94043-68.98437-172.021-6.93066-241.50244a2.36545,2.36545,0,0,1,1.73535-.79736c.02246-.00049.04541-.001.06982-.001a2.5144,2.5144,0,0,1,1.79492.7417L390.3916,369.11426a2.51743,2.51743,0,0,1,.74072,1.86474A2.36525,2.36525,0,0,1,390.335,372.71387ZM362.9082,149.0918A65.76536,65.76536,0,0,1,382.03662,195.273a7.5,7.5,0,0,0,15,0,80.309,80.309,0,0,0-80.30957-80.30957,7.5,7.5,0,0,0,0,15A65.76536,65.76536,0,0,1,362.9082,149.0918Z"/></svg>